<svg xmlns="http://www.w3.org/2000/svg" viewBox="0 0 1600 900" preserveAspectRatio="xMidYMid slice">
  <defs>
    <radialGradient id="r" cx="52%" cy="35%" r="65%">
      <stop offset="0%" stop-color="#5b1422"/>
      <stop offset="48%" stop-color="#16070b"/>
      <stop offset="100%" stop-color="#050304"/>
    </radialGradient>
    <linearGradient id="g" x1="0" y1="0" x2="1" y2="1">
      <stop offset="0%" stop-color="#fff2a8"/>
      <stop offset="45%" stop-color="#d4af37"/>
      <stop offset="100%" stop-color="#7b5617"/>
    </linearGradient>
    <filter id="blur"><feGaussianBlur stdDeviation="3"/></filter>
  </defs>
  <rect width="1600" height="900" fill="url(#r)"/>
  <rect width="1600" height="900" fill="#000" opacity=".22"/>
  <g opacity=".48" filter="url(#blur)">
    <circle cx="1120" cy="160" r="240" fill="#761528" opacity=".35"/>
    <circle cx="280" cy="130" r="210" fill="#d4af37" opacity=".08"/>
  </g>
  <g opacity=".33" fill="#d4af37">
    <rect x="65" y="300" width="48" height="300"/><rect x="132" y="250" width="44" height="350"/><rect x="200" y="330" width="55" height="270"/><rect x="1330" y="280" width="46" height="320"/><rect x="1400" y="215" width="54" height="385"/><rect x="1480" y="335" width="42" height="265"/>
    <g fill="#fff2a8" opacity=".45"><circle cx="86" cy="330" r="4"/><circle cx="155" cy="282" r="4"/><circle cx="222" cy="362" r="4"/><circle cx="1355" cy="315" r="4"/><circle cx="1425" cy="248" r="4"/><circle cx="1500" cy="365" r="4"/></g>
  </g>
  <g opacity=".36">
    <path d="M180 690c30-120 95-160 160-140 75 25 105 115 112 180H135c5-17 15-31 45-40z" fill="#050304"/>
    <path d="M1160 710c18-120 80-190 165-170 75 18 125 100 135 190h-320c4-9 9-15 20-20z" fill="#050304"/>
    <path d="M645 735c18-145 95-245 200-245s185 105 205 245H645z" fill="#050304" opacity=".88"/>
    <ellipse cx="845" cy="442" rx="72" ry="82" fill="#070304"/>
    <path d="M750 425h190c25 0 25 35 0 35H750c-25 0-25-35 0-35z" fill="#090305"/>
    <path d="M785 420c25-70 95-75 120 0z" fill="#090305"/>
  </g>
  <g opacity=".62" stroke="url(#g)" fill="none">
    <rect x="34" y="34" width="1532" height="832" rx="24" stroke-width="3"/>
    <rect x="58" y="58" width="1484" height="784" rx="18" stroke-width="1" opacity=".55"/>
    <path d="M650 110h300M650 790h300" stroke-width="4"/>
    <circle cx="800" cy="110" r="48" stroke-width="4"/>
  </g>
  <text x="800" y="128" text-anchor="middle" font-family="Georgia,serif" font-size="58" font-weight="700" fill="url(#g)">M</text>
  <text x="800" y="820" text-anchor="middle" font-family="Georgia,serif" font-size="76" font-weight="700" fill="url(#g)" opacity=".50">MAFIA GAME</text>
</svg>